<svg width="113" height="21" viewBox="0 0 113 21" fill="none" xmlns="http://www.w3.org/2000/svg">
<path fill-rule="evenodd" clip-rule="evenodd" d="M11.0167 12.9865C11.0167 10.8221 9.55748 9.32767 7.5959 9.32767C5.60879 9.32767 4.15 10.8221 4.15 12.9865C4.15 15.1508 5.60879 16.6714 7.5959 16.6714C9.55748 16.6714 11.0167 15.1508 11.0167 12.9865ZM4.2757 19.6858H4.25066L4.2757 19.8403V20.7421H0V0.64399H4.2757V6.18396L4.25066 6.33839H4.2757C5.25673 5.46266 6.61487 5.02456 8.19983 5.02456C12.6012 5.02456 15.5188 8.24524 15.5188 13.0121C15.5188 17.779 12.6012 20.9997 8.19983 20.9997C6.61487 20.9997 5.25673 20.562 4.2757 19.6858ZM17.7058 5.28234H21.9815V7.03427L21.9565 7.21484H21.9815C22.6606 5.95232 23.868 5.02432 25.3773 5.02432C26.3834 5.02432 27.0625 5.30799 27.44 5.59119V10.4612C26.9618 10.0487 26.2326 9.61111 25.0753 9.61111C23.6922 9.61111 22.4597 10.6931 21.9815 12.2393V20.7424H17.7058V5.28234ZM39.4868 12.9865C39.4868 10.8221 38.028 9.32767 36.0659 9.32767C34.0788 9.32767 32.62 10.8221 32.62 12.9865C32.62 15.1508 34.0788 16.6714 36.0659 16.6714C38.028 16.6714 39.4868 15.1508 39.4868 12.9865ZM28.118 13.0121C28.118 8.24524 31.0355 5.02456 35.4374 5.02456C37.0219 5.02456 38.38 5.54012 39.3611 6.51896H39.3861L39.3611 6.36453V5.28258H43.6368V20.7421H39.3611V19.6858L39.3861 19.5309H39.3611C38.38 20.4846 37.0219 20.9997 35.4374 20.9997C31.0355 20.9997 28.118 17.779 28.118 13.0121ZM46.7288 20.7425H51.0049V5.28243H46.7288V20.7425ZM46.5525 2.31929C46.5525 0.901867 47.4329 0 48.8666 0C50.2753 0 51.1557 0.901867 51.1557 2.31929C51.1557 3.68444 50.2753 4.56065 48.8666 4.56065C47.4329 4.56065 46.5525 3.68444 46.5525 2.31929ZM54.0977 5.28234H58.3734V6.20986L58.3484 6.38995H58.3734C59.1536 5.64299 60.5113 4.973 62.1213 4.973C65.3408 4.973 67.3535 7.18918 67.3535 11.1568V20.7424H63.0773V11.9556C63.0773 9.9461 62.1463 9.22432 60.7882 9.22432C59.5558 9.22432 58.8266 9.8943 58.3734 10.4873V20.7424H54.0977V5.28234ZM80.6322 11.2344C80.3052 10.3325 79.224 8.91556 77.2114 8.91556C75.6524 8.91556 74.3699 9.79129 73.791 11.2344H80.6322ZM84.8834 14.6356H73.7409C74.2938 16.1813 75.6775 17.1089 77.2114 17.1089C78.6456 17.1089 79.6011 16.3619 80.1294 15.6663H84.6065C83.5753 18.8613 80.783 21 77.2114 21C72.8851 21 69.4147 17.9337 69.4147 13.012C69.4147 8.24509 72.8851 5.02441 77.2114 5.02441C81.5381 5.02441 85.0091 8.24509 85.0091 13.012C85.0091 13.5019 84.9585 14.0687 84.8834 14.6356ZM97.7845 11.2344C97.4575 10.3325 96.3763 8.91556 94.3641 8.91556C92.8047 8.91556 91.5221 9.79129 90.9433 11.2344H97.7845ZM102.036 14.6356H90.8932C91.4461 16.1813 92.8297 17.1089 94.3641 17.1089C95.7979 17.1089 96.7534 16.3619 97.2817 15.6663H101.759C100.728 18.8613 97.9352 21 94.3641 21C90.0374 21 86.5669 17.9337 86.5669 13.012C86.5669 8.24509 90.0374 5.02441 94.3641 5.02441C98.6904 5.02441 102.161 8.24509 102.161 13.012C102.161 13.5019 102.111 14.0687 102.036 14.6356ZM113 9.61101H110.158V20.7423H105.882V9.61101H103.039V5.28224H105.882V0.644136H110.158V5.28224H113V9.61101Z" fill="url(#paint0_linear)"/>
<defs>
<linearGradient id="paint0_linear" x1="-56.5" y1="10.5" x2="-48.9553" y2="51.0979" gradientUnits="userSpaceOnUse">
<stop stop-color="#7F90FF"/>
<stop offset="1" stop-color="#4747CC"/>
</linearGradient>
</defs>
</svg>
